<svg width="80" height="80" viewBox="0 0 80 80" fill="none" xmlns="http://www.w3.org/2000/svg">
<circle cx="40" cy="40" r="31.5" fill="#C70A0A"/>
<path d="M40.002 23.3485V41.6325" stroke="white" stroke-width="5.224" stroke-linecap="round" stroke-linejoin="round"/>
<path d="M43.0487 53.3865C43.0487 55.0695 41.6843 56.4338 40.0013 56.4338C38.3183 56.4338 36.954 55.0695 36.954 53.3865C36.954 51.7035 38.3183 50.3392 40.0013 50.3392C41.6843 50.3392 43.0487 51.7035 43.0487 53.3865Z" fill="white" stroke="white" stroke-width="0.435333"/>
<path fill-rule="evenodd" clip-rule="evenodd" d="M78.9981 40C78.9981 61.5391 61.5372 79 39.9981 79C18.4589 79 0.998047 61.5391 0.998047 40C0.998047 18.4609 18.4589 1 39.9981 1C61.5372 1 78.9981 18.4609 78.9981 40ZM39.9981 76.5046C60.159 76.5046 76.5026 60.1609 76.5026 40C76.5026 19.8391 60.159 3.49543 39.9981 3.49543C19.8371 3.49543 3.49348 19.8391 3.49348 40C3.49348 60.1609 19.8371 76.5046 39.9981 76.5046Z" fill="#C70A0A"/>
</svg>
