<svg width="221" height="220" viewBox="0 0 221 220" fill="none" xmlns="http://www.w3.org/2000/svg">
<path d="M165.449 48.7185V56.596" stroke="#AFAFAF" stroke-width="1.8203" stroke-linecap="round" stroke-linejoin="round"/>
<path d="M161.535 52.6466H169.364" stroke="#AFAFAF" stroke-width="1.8203" stroke-linecap="round" stroke-linejoin="round"/>
<path d="M4.93262 18.3295V26.1887" stroke="#AFAFAF" stroke-width="1.8203" stroke-linecap="round" stroke-linejoin="round"/>
<path d="M1 22.2584H8.84736" stroke="#AFAFAF" stroke-width="1.8203" stroke-linecap="round" stroke-linejoin="round"/>
<path d="M65.8546 3.58175C66.8401 3.58175 67.639 2.77995 67.639 1.79087C67.639 0.801801 66.8401 0 65.8546 0C64.8692 0 64.0703 0.801801 64.0703 1.79087C64.0703 2.77995 64.8692 3.58175 65.8546 3.58175Z" fill="#AFAFAF"/>
<g opacity="0.6" filter="url(#filter0_f_1326_32853)">
<path d="M85.7728 200.011C122.687 200.011 152.612 198.138 152.612 195.826C152.612 193.514 122.687 191.64 85.7728 191.64C48.8585 191.64 18.9336 193.514 18.9336 195.826C18.9336 198.138 48.8585 200.011 85.7728 200.011Z" fill="#E3E3E3"/>
</g>
<path d="M114.163 6.06897L25.174 18.1449C22.324 18.5317 20.326 21.1641 20.7114 24.0245L37.9686 152.131C38.354 154.991 40.9767 156.997 43.8267 156.61L132.816 144.534C135.666 144.147 137.664 141.515 137.278 138.654L120.021 10.548C119.636 7.68755 117.013 5.68222 114.163 6.06897Z" fill="#E3E3E3"/>
<path d="M143.727 24.8712H53.928C51.0521 24.8712 48.7207 27.2112 48.7207 30.0976V159.37C48.7207 162.256 51.0521 164.596 53.928 164.596H143.727C146.603 164.596 148.934 162.256 148.934 159.37V30.0976C148.934 27.2112 146.603 24.8712 143.727 24.8712Z" fill="white" stroke="#272727" stroke-width="2" stroke-linecap="round" stroke-linejoin="round"/>
<path d="M120.404 125.232H77.2341C75.6152 125.232 74.3027 126.549 74.3027 128.174V128.192C74.3027 129.817 75.6152 131.134 77.2341 131.134H120.404C122.023 131.134 123.335 129.817 123.335 128.192V128.174C123.335 126.549 122.023 125.232 120.404 125.232Z" fill="#E3E3E3"/>
<path d="M118.856 149.353H77.4341C76.9414 149.353 76.542 149.754 76.542 150.249V150.523C76.542 151.017 76.9414 151.418 77.4341 151.418H118.856C119.349 151.418 119.748 151.017 119.748 150.523V150.249C119.748 149.754 119.349 149.353 118.856 149.353Z" fill="#E3E3E3"/>
<path d="M129.416 139.687H68.4032C67.7496 139.687 67.2197 140.219 67.2197 140.875C67.2197 141.531 67.7496 142.062 68.4032 142.062H129.416C130.07 142.062 130.599 141.531 130.599 140.875C130.599 140.219 130.07 139.687 129.416 139.687Z" fill="#E3E3E3"/>
<path d="M58.4552 31.4179H139.201C140.667 31.4179 141.861 32.6114 141.861 34.0912V104.372C141.861 105.852 140.667 107.045 139.201 107.045H58.4552C56.9894 107.045 55.7952 105.852 55.7952 104.372V34.0912C55.7952 32.6114 56.9894 31.4179 58.4552 31.4179Z" fill="white" stroke="#272727" stroke-width="1.93406" stroke-linecap="round" stroke-linejoin="round"/>
<path d="M13.7275 107.488V115.366" stroke="#AFAFAF" stroke-width="1.8203" stroke-linecap="round" stroke-linejoin="round"/>
<path d="M9.8125 111.417H17.6599" stroke="#AFAFAF" stroke-width="1.8203" stroke-linecap="round" stroke-linejoin="round"/>
<path d="M161.136 104.025C162.121 104.025 162.92 103.223 162.92 102.234C162.92 101.245 162.121 100.443 161.136 100.443C160.15 100.443 159.352 101.245 159.352 102.234C159.352 103.223 160.15 104.025 161.136 104.025Z" fill="#AFAFAF"/>
<path d="M148.479 188.15C169.325 188.15 186.223 171.189 186.223 150.267C186.223 129.345 169.325 112.385 148.479 112.385C127.634 112.385 110.735 129.345 110.735 150.267C110.735 171.189 127.634 188.15 148.479 188.15Z" fill="white" stroke="#272727" stroke-width="2" stroke-linecap="round" stroke-linejoin="round"/>
<path d="M186.029 182.941L182.909 186.217C181.505 187.691 181.557 190.028 183.026 191.436L210.138 217.449C211.606 218.858 213.934 218.805 215.338 217.332L218.458 214.056C219.862 212.582 219.809 210.245 218.341 208.837L191.229 182.824C189.761 181.415 187.432 181.468 186.029 182.941Z" fill="white" stroke="#272727" stroke-width="2" stroke-linecap="round" stroke-linejoin="round"/>
<path d="M176.483 176.345L183.766 183.656" stroke="#272727" stroke-width="2" stroke-linecap="round" stroke-linejoin="round"/>
<path d="M136.427 137.969C136.882 138.919 159.623 161.269 159.623 161.269L136.427 137.969Z" fill="white"/>
<path d="M136.427 137.969C136.882 138.919 159.623 161.269 159.623 161.269" stroke="#272727" stroke-width="2" stroke-linecap="round" stroke-linejoin="round"/>
<path d="M159.623 137.969C159.15 138.919 136.427 161.269 136.427 161.269L159.623 137.969Z" fill="white"/>
<path d="M159.623 137.969C159.15 138.919 136.427 161.269 136.427 161.269" stroke="#272727" stroke-width="2" stroke-linecap="round" stroke-linejoin="round"/>
<defs>
<filter id="filter0_f_1326_32853" x="14.9336" y="187.64" width="141.679" height="16.371" filterUnits="userSpaceOnUse" color-interpolation-filters="sRGB">
<feFlood flood-opacity="0" result="BackgroundImageFix"/>
<feBlend mode="normal" in="SourceGraphic" in2="BackgroundImageFix" result="shape"/>
<feGaussianBlur stdDeviation="2" result="effect1_foregroundBlur_1326_32853"/>
</filter>
</defs>
</svg>
