<svg width="220" height="220" viewBox="0 0 220 220" fill="none" xmlns="http://www.w3.org/2000/svg">
<path d="M179.705 58.7185V66.596" stroke="#AFAFAF" stroke-width="1.8203" stroke-linecap="round" stroke-linejoin="round"/>
<path d="M175.809 62.6466H183.602" stroke="#AFAFAF" stroke-width="1.8203" stroke-linecap="round" stroke-linejoin="round"/>
<path d="M19.915 28.3295V36.1887" stroke="#AFAFAF" stroke-width="1.8203" stroke-linecap="round" stroke-linejoin="round"/>
<path d="M16 32.2584H23.8119" stroke="#AFAFAF" stroke-width="1.8203" stroke-linecap="round" stroke-linejoin="round"/>
<path d="M80.5614 13.5817C81.5424 13.5817 82.3376 12.7799 82.3376 11.7909C82.3376 10.8018 81.5424 10 80.5614 10C79.5804 10 78.7852 10.8018 78.7852 11.7909C78.7852 12.7799 79.5804 13.5817 80.5614 13.5817Z" fill="#AFAFAF"/>
<g opacity="0.6" filter="url(#filter0_f_1992_14117)">
<path d="M106.389 210.011C143.136 210.011 172.926 208.137 172.926 205.826C172.926 203.514 143.136 201.64 106.389 201.64C69.642 201.64 39.8525 203.514 39.8525 205.826C39.8525 208.137 69.642 210.011 106.389 210.011Z" fill="#E3E3E3"/>
</g>
<path d="M128.651 16.069L40.0647 28.1449C37.2276 28.5317 35.2387 31.1641 35.6223 34.0245L52.8014 162.131C53.185 164.991 55.7959 166.997 58.633 166.61L147.219 154.534C150.056 154.147 152.045 151.515 151.662 148.654L134.482 20.548C134.099 17.6875 131.488 15.6822 128.651 16.069Z" fill="#E3E3E3"/>
<path d="M158.081 34.8712H68.6886C65.8257 34.8712 63.5049 37.2112 63.5049 40.0976V169.37C63.5049 172.256 65.8257 174.596 68.6886 174.596H158.081C160.944 174.596 163.265 172.256 163.265 169.37V40.0976C163.265 37.2112 160.944 34.8712 158.081 34.8712Z" fill="white" stroke="#272727" stroke-width="2" stroke-linecap="round" stroke-linejoin="round"/>
<path d="M134.863 135.232H91.8888C90.2772 135.232 88.9707 136.549 88.9707 138.174V138.192C88.9707 139.817 90.2772 141.135 91.8888 141.135H134.863C136.475 141.135 137.781 139.817 137.781 138.192V138.174C137.781 136.549 136.475 135.232 134.863 135.232Z" fill="#E3E3E3"/>
<path d="M133.323 159.353H92.0883C91.5978 159.353 91.2002 159.754 91.2002 160.249V160.523C91.2002 161.017 91.5978 161.418 92.0883 161.418H133.323C133.813 161.418 134.211 161.017 134.211 160.523V160.249C134.211 159.754 133.813 159.353 133.323 159.353Z" fill="#E3E3E3"/>
<path d="M143.835 149.687H83.098C82.4474 149.687 81.9199 150.219 81.9199 150.875C81.9199 151.531 82.4474 152.062 83.098 152.062H143.835C144.485 152.062 145.013 151.531 145.013 150.875C145.013 150.219 144.485 149.687 143.835 149.687Z" fill="#E3E3E3"/>
<path d="M73.1946 41.4178H153.575C155.028 41.4178 156.219 42.6072 156.219 44.0912V114.372C156.219 115.856 155.028 117.045 153.575 117.045H73.1946C71.7421 117.045 70.551 115.856 70.551 114.372V44.0912C70.551 42.6072 71.7421 41.4178 73.1946 41.4178Z" fill="white" stroke="#272727" stroke-width="1.93406" stroke-linecap="round" stroke-linejoin="round"/>
<path d="M121 92L112.999 86.5652L105 92V68.087C105 67.7987 105.105 67.5222 105.293 67.3184C105.48 67.1145 105.735 67 106 67H120C120.265 67 120.52 67.1145 120.707 67.3184C120.895 67.5222 121 67.7987 121 68.087V92Z" fill="white" stroke="#272727" stroke-width="2" stroke-linecap="round" stroke-linejoin="round"/>
<path d="M28.6699 117.488V125.366" stroke="#AFAFAF" stroke-width="1.8203" stroke-linecap="round" stroke-linejoin="round"/>
<path d="M24.7725 121.417H32.5843" stroke="#AFAFAF" stroke-width="1.8203" stroke-linecap="round" stroke-linejoin="round"/>
<path d="M175.411 114.025C176.392 114.025 177.187 113.223 177.187 112.234C177.187 111.245 176.392 110.443 175.411 110.443C174.43 110.443 173.635 111.245 173.635 112.234C173.635 113.223 174.43 114.025 175.411 114.025Z" fill="#AFAFAF"/>
<defs>
<filter id="filter0_f_1992_14117" x="35.8525" y="197.64" width="141.073" height="16.371" filterUnits="userSpaceOnUse" color-interpolation-filters="sRGB">
<feFlood flood-opacity="0" result="BackgroundImageFix"/>
<feBlend mode="normal" in="SourceGraphic" in2="BackgroundImageFix" result="shape"/>
<feGaussianBlur stdDeviation="2" result="effect1_foregroundBlur_1992_14117"/>
</filter>
</defs>
</svg>
