<svg width="36" height="36" viewBox="0 0 36 36" fill="none" xmlns="http://www.w3.org/2000/svg">
<path d="M0 4C0 1.79086 1.79086 0 4 0H32C34.2091 0 36 1.79086 36 4V32C36 34.2091 34.2091 36 32 36H4C1.79086 36 0 34.2091 0 32V4Z" fill="white"/>
<path d="M24.938 9.5293H11.0618C10.2154 9.5293 9.5293 10.2154 9.5293 11.0618V24.938C9.5293 25.7844 10.2154 26.4705 11.0618 26.4705H24.938C25.7844 26.4705 26.4705 25.7844 26.4705 24.938V11.0618C26.4705 10.2154 25.7844 9.5293 24.938 9.5293ZM14.7716 24.1574C14.7716 24.4037 14.572 24.6034 14.3256 24.6034H12.4273C12.1809 24.6034 11.9813 24.4037 11.9813 24.1574V16.1995C11.9813 15.9532 12.1809 15.7535 12.4273 15.7535H14.3256C14.572 15.7535 14.7716 15.9532 14.7716 16.1995V24.1574ZM13.3765 15.0033C12.3804 15.0033 11.573 14.1959 11.573 13.1999C11.573 12.2038 12.3804 11.3964 13.3765 11.3964C14.3725 11.3964 15.1799 12.2038 15.1799 13.1999C15.1799 14.1959 14.3725 15.0033 13.3765 15.0033ZM24.6925 24.1933C24.6925 24.4198 24.5089 24.6034 24.2825 24.6034H22.2454C22.0189 24.6034 21.8353 24.4198 21.8353 24.1933V20.4606C21.8353 19.9038 21.9987 18.0205 20.3801 18.0205C19.1247 18.0205 18.87 19.3095 18.8189 19.888V24.1933C18.8189 24.4198 18.6353 24.6034 18.4088 24.6034H16.4386C16.2121 24.6034 16.0285 24.4198 16.0285 24.1933V16.1635C16.0285 15.9371 16.2121 15.7535 16.4386 15.7535H18.4088C18.6353 15.7535 18.8189 15.9371 18.8189 16.1635V16.8578C19.2844 16.1592 19.9762 15.62 21.4493 15.62C24.7112 15.62 24.6925 18.6674 24.6925 20.3418V24.1933Z" fill="#0077B7"/>
</svg>
