<svg width="193" height="35" viewBox="0 0 193 35" fill="none" xmlns="http://www.w3.org/2000/svg">
<g clip-path="url(#clip0_600_3050)">
<path fill-rule="evenodd" clip-rule="evenodd" d="M-5.34058e-05 3.89233V35.0004H31.1079V3.89233H-5.34058e-05ZM27.2159 31.1083H3.8919V7.78438H27.2159V31.1083Z" fill="#272727"/>
<path fill-rule="evenodd" clip-rule="evenodd" d="M34.9995 0V31.108H31.1075V3.89196H3.89145V0H34.9995Z" fill="#0BFF72"/>
</g>
<g clip-path="url(#clip1_600_3050)">
<path d="M58.2458 20.2599C58.2458 24.8144 55.6792 27.7125 51.7327 27.7125C49.6066 27.7125 48.0064 26.8011 46.9838 25.2279V27.381H44.3341V7.72815H47.0962V15.1257C48.1166 13.6626 49.6898 12.8074 51.7327 12.8074C55.6792 12.8074 58.2458 15.7055 58.2458 20.2599ZM55.3758 20.1498C55.3758 16.8921 53.7464 15.1807 51.209 15.1807C48.6694 15.1807 47.04 17.0034 47.04 20.2599C47.04 23.5165 48.6694 25.3381 51.209 25.3381C53.7464 25.3381 55.3758 23.4064 55.3758 20.1498Z" fill="#272727"/>
<path d="M73.1598 24.8143V27.3809H59.5785L59.6616 26.1391C59.801 23.6546 60.3786 20.7014 64.3273 18.6866L66.5613 17.4438C68.8807 16.202 69.874 15.0435 69.874 13.1387C69.874 11.2059 68.6042 9.85408 66.2871 9.85408C63.9677 9.85408 62.5046 11.0126 62.5046 13.8006H59.6077C59.5785 9.71586 61.981 7.28748 66.3703 7.28748C70.3438 7.28748 72.9104 9.68776 72.9104 13.0275C72.9104 15.8154 71.3933 17.8033 68.1076 19.5698L66.1478 20.6733C64.0779 21.833 63.0283 22.8544 62.8912 24.8142L73.1598 24.8143Z" fill="#272727"/>
<path d="M89.5089 20.2599C89.5089 24.8144 86.9423 27.7125 82.9957 27.7125C80.8696 27.7125 79.2695 26.8011 78.2469 25.2279V27.381H75.5971V7.72815H78.3592V15.1257C79.3796 13.6626 80.9528 12.8074 82.9957 12.8074C86.9423 12.8074 89.5089 15.7055 89.5089 20.2599ZM86.6389 20.1498C86.6389 16.8921 85.0095 15.1807 82.4721 15.1807C79.9324 15.1807 78.3031 17.0034 78.3031 20.2599C78.3031 23.5165 79.9325 25.3381 82.4721 25.3381C85.0095 25.3381 86.6389 23.4064 86.6389 20.1498Z" fill="#272727"/>
<path d="M96.8607 20.2599C96.8607 15.7055 99.5666 12.8074 103.65 12.8074C107.183 12.8074 109.559 14.8773 109.999 18.1069H107.183C106.797 16.1201 105.336 15.2088 103.65 15.2088C101.387 15.2088 99.7307 16.8101 99.7307 20.2599C99.7307 23.7097 101.443 25.311 103.65 25.311C105.363 25.311 106.88 24.3727 107.212 22.3028H110.026C109.586 25.6695 107.046 27.7125 103.65 27.7125C99.6206 27.7125 96.8607 24.8144 96.8607 20.2599Z" fill="#272727"/>
<path d="M120.082 12.9455V15.5671H119.392C116.662 15.5671 114.949 16.9201 114.949 19.653V27.3808H112.189V13.1387H114.839V15.6772C115.612 14.1321 117.019 12.9174 119.282 12.9174C119.532 12.9174 119.779 12.9174 120.082 12.9455Z" fill="#272727"/>
<path d="M134.192 21.1701H123.456C123.703 24.0694 125.249 25.3931 127.539 25.3931C129.389 25.3931 130.576 24.4548 131.072 23.0198H133.861C133.142 25.7797 130.908 27.7125 127.485 27.7125C123.456 27.7125 120.667 24.8414 120.667 20.2599C120.667 15.7886 123.373 12.8074 127.429 12.8074C131.735 12.8074 134.192 16.092 134.192 20.37V21.1701ZM123.483 18.9901H131.349C131.102 16.782 129.749 15.1256 127.429 15.1256C125.359 15.1256 123.842 16.3685 123.483 18.9901Z" fill="#272727"/>
<path d="M149.547 25.2561V27.381C149.133 27.4361 148.637 27.4642 148.194 27.4642C146.427 27.4642 145.627 26.8293 145.434 25.4493C144.468 26.9394 142.867 27.7125 140.797 27.7125C137.734 27.7125 135.718 26.2213 135.718 23.4896C135.718 21.1983 137.098 19.4599 141.074 19.0733L143.171 18.8519C144.551 18.6867 145.297 18.217 145.297 17.0585C145.297 15.7336 144.607 15.0155 142.371 15.0155C140.134 15.0155 139.197 15.6504 139.058 17.5821H136.327C136.491 14.7121 138.094 12.8074 142.371 12.8074C146.457 12.8074 148.001 14.5188 148.001 17.0034V24.538C148.001 24.9796 148.223 25.256 148.774 25.256L149.547 25.2561ZM145.297 21.75V20.26C144.883 20.5915 144.303 20.7567 143.53 20.8398L141.544 21.0601C139.251 21.3365 138.561 22.1366 138.561 23.4064C138.561 24.7032 139.418 25.5595 141.211 25.5595C143.227 25.5595 145.297 24.4279 145.297 21.75Z" fill="#272727"/>
<path d="M154.772 15.402V23.9581C154.772 24.7862 155.185 25.1728 156.401 25.1728H157.642V27.3809C157.035 27.436 156.455 27.4641 155.959 27.4641C153.392 27.4641 152.012 26.5808 152.012 24.2064V15.402H149.722V13.1388H152.012V9.05408H154.772V13.1388H157.642V15.402H154.772Z" fill="#272727"/>
<path d="M159.829 8.17065H162.643V11.1238H159.829V8.17065ZM159.856 13.1386H162.616V27.3808H159.856V13.1386Z" fill="#272727"/>
<path d="M178.102 13.139L172.636 27.3812H169.573L164.136 13.139H167.116L169.049 18.3554C169.739 20.3983 170.512 22.6334 171.146 24.7033C171.809 22.6334 172.582 20.3983 173.272 18.3554L175.176 13.139H178.102Z" fill="#272727"/>
<path d="M191.857 21.1701H181.119C181.369 24.0694 182.913 25.3931 185.205 25.3931C187.055 25.3931 188.241 24.4548 188.738 23.0198H191.525C190.808 25.7797 188.572 27.7125 185.149 27.7125C181.119 27.7125 178.332 24.8414 178.332 20.2599C178.332 15.7886 181.036 12.8074 185.095 12.8074C189.401 12.8074 191.857 16.092 191.857 20.37L191.857 21.1701ZM181.146 18.9901H189.014C188.765 16.782 187.412 15.1256 185.095 15.1256C183.025 15.1256 181.506 16.3685 181.146 18.9901Z" fill="#272727"/>
</g>
<defs>
<clipPath id="clip0_600_3050">
<rect width="35" height="35" fill="white"/>
</clipPath>
<clipPath id="clip1_600_3050">
<rect width="147.523" height="20.4249" fill="white" transform="translate(44.3334 7.2876)"/>
</clipPath>
</defs>
</svg>
