<svg width="36" height="36" viewBox="0 0 36 36" fill="none" xmlns="http://www.w3.org/2000/svg">
<path d="M0 4C0 1.79086 1.79086 0 4 0H32C34.2091 0 36 1.79086 36 4V32C36 34.2091 34.2091 36 32 36H4C1.79086 36 0 34.2091 0 32V4Z" fill="white"/>
<path d="M9.41057 20.7758C9.41057 21.6279 9.59761 22.2822 9.84208 22.678C10.1626 23.1964 10.6407 23.4161 11.1281 23.4161C11.7567 23.4161 12.3318 23.2601 13.4401 21.7273C14.3279 20.4987 15.3741 18.7742 16.0781 17.6931L17.2701 15.8615C18.0982 14.5895 19.0567 13.1754 20.1557 12.2169C21.0529 11.4346 22.0207 11 22.9947 11C24.6299 11 26.1875 11.9476 27.3796 13.7249C28.6843 15.6714 29.3176 18.1231 29.3176 20.6531C29.3176 22.1572 29.0211 23.2624 28.5166 24.1355C28.0292 24.9799 27.0793 25.8235 25.4813 25.8235V23.4161C26.8496 23.4161 27.191 22.1588 27.191 20.7199C27.191 18.6694 26.713 16.3939 25.6598 14.768C24.9124 13.6147 23.9438 12.91 22.8783 12.91C21.7257 12.91 20.7983 13.7792 19.756 15.3291C19.2019 16.1525 18.633 17.156 17.9942 18.2884L17.2911 19.534C15.8786 22.0385 15.5208 22.6089 14.8146 23.5503C13.5767 25.1988 12.5196 25.8235 11.1281 25.8235C9.47731 25.8235 8.43346 25.1087 7.78697 24.0315C7.25922 23.1537 7 22.002 7 20.6896L9.41057 20.7758Z" fill="#0081FB"/>
<path d="M8.90039 13.8949C10.0056 12.1913 11.6004 11 13.4297 11C14.4891 11 15.5423 11.3135 16.642 12.2115C17.845 13.1933 19.1271 14.8099 20.7266 17.4742L21.3002 18.4304C22.6847 20.737 23.4725 21.9236 23.9335 22.4832C24.5264 23.2019 24.9416 23.4161 25.481 23.4161C26.8493 23.4161 27.1908 22.1588 27.1908 20.7199L29.3173 20.6531C29.3173 22.1572 29.0208 23.2624 28.5163 24.1355C28.029 24.9799 27.079 25.8235 25.481 25.8235C24.4876 25.8235 23.6075 25.6078 22.6343 24.6896C21.8861 23.9849 21.0114 22.7331 20.3386 21.6077L18.337 18.2643C17.3327 16.5864 16.4115 15.3353 15.8783 14.7687C15.3048 14.1595 14.5675 13.4238 13.3909 13.4238C12.4386 13.4238 11.6299 14.092 10.9532 15.1141L8.90039 13.8949Z" fill="url(#paint0_linear_773_5359)"/>
<path d="M13.3912 13.4238C12.4389 13.4238 11.6302 14.092 10.9535 15.1141C9.99653 16.5584 9.41057 18.7098 9.41057 20.7758C9.41057 21.6279 9.59761 22.2822 9.84208 22.678L7.78697 24.0315C7.25922 23.1537 7 22.002 7 20.6896C7 18.3031 7.65503 15.8157 8.90067 13.8949C10.0058 12.1913 11.6007 11 13.43 11L13.3912 13.4238Z" fill="url(#paint1_linear_773_5359)"/>
<defs>
<linearGradient id="paint0_linear_773_5359" x1="292.255" y1="840.136" x2="1827.09" y2="917.652" gradientUnits="userSpaceOnUse">
<stop stop-color="#0064E1"/>
<stop offset="0.4" stop-color="#0064E1"/>
<stop offset="0.83" stop-color="#0073EE"/>
<stop offset="1" stop-color="#0082FB"/>
</linearGradient>
<linearGradient id="paint1_linear_773_5359" x1="356.245" y1="1089.78" x2="356.245" y2="523.227" gradientUnits="userSpaceOnUse">
<stop stop-color="#0082FB"/>
<stop offset="1" stop-color="#0064E0"/>
</linearGradient>
</defs>
</svg>
