<svg width="80" height="80" viewBox="0 0 80 80" fill="none" xmlns="http://www.w3.org/2000/svg">
<circle cx="40" cy="40" r="31.5" fill="#0BFF72"/>
<path d="M26.0547 37.0589L39.2283 49.9225C39.6382 50.3227 40.3 50.2975 40.6781 49.8671L72.5572 13.5879" stroke="#272727" stroke-width="4" stroke-linecap="round"/>
<path fill-rule="evenodd" clip-rule="evenodd" d="M39.9981 79C61.5372 79 78.9981 61.5391 78.9981 40C78.9981 32.9772 77.1418 26.388 73.8932 20.6961L72.1439 22.6869C74.9244 27.8387 76.5026 33.7351 76.5026 40C76.5026 60.1609 60.159 76.5046 39.9981 76.5046C19.8371 76.5046 3.49348 60.1609 3.49348 40C3.49348 19.8391 19.8371 3.49543 39.9981 3.49543C49.4988 3.49543 58.1519 7.12494 64.6464 13.073L66.2939 11.1981C59.3597 4.8637 50.1301 1 39.9981 1C18.4589 1 0.998047 18.4609 0.998047 40C0.998047 61.5391 18.4589 79 39.9981 79Z" fill="#272727"/>
</svg>
